<svg xmlns="http://www.w3.org/2000/svg" version="1.1" xmlns:xlink="http://www.w3.org/1999/xlink" xmlns:svgjs="http://svgjs.dev/svgjs" width="128" height="128" viewBox="0 0 128 128"><g transform="matrix(0.412,0,0,0.412,37.09723976825852,12.221578124999994)"><svg viewBox="0 0 49 96" data-background-color="#ffffff" preserveAspectRatio="xMidYMid meet" height="250" width="128" xmlns="http://www.w3.org/2000/svg" xmlns:xlink="http://www.w3.org/1999/xlink"><g id="tight-bounds" transform="matrix(1,0,0,1,0.4968759738192574,0.25950000000000273)"><svg viewBox="0 0 48.00624805236148 95.481" height="95.481" width="48.00624805236148"><g><svg viewBox="0 0 48.00624805236148 95.481" height="95.481" width="48.00624805236148"><g><svg viewBox="0 0 48.00624805236148 95.481" height="95.481" width="48.00624805236148"><g id="textblocktransform"><svg viewBox="0 0 48.00624805236148 95.481" height="95.481" width="48.00624805236148" id="textblock"><g><svg viewBox="0 0 48.00624805236148 95.481" height="95.481" width="48.00624805236148"><g><svg viewBox="0 0 48.00624805236148 95.481" height="95.481" width="48.00624805236148"><g><svg xmlns="http://www.w3.org/2000/svg" xmlns:xlink="http://www.w3.org/1999/xlink" version="1.1" x="0" y="0" viewBox="25.00067441442645 0 50.27832558557355 100" enable-background="new 0 0 100 100" xml:space="preserve" height="95.481" width="48.00624805236148" class="icon-icon-0" data-fill-palette-color="accent" id="icon-0"><g fill="#000000" data-fill-palette-color="accent"><g fill="#000000" data-fill-palette-color="accent"><path d="M37 50C35.952 57.799 40.27 60.057 40.27 69.602 40.27 95 0.184 99.935 49.912 99.998V100L50.157 99.999 50.402 100V99.998C68.707 99.975 74.834 98.675 75.279 96.003 51 81 45 67.179 37 50" fill="#ffffff" data-fill-palette-color="accent"></path></g><path d="M38.275 41.361C34 51 57 86 75 94 70.603 89.044 60.043 78.987 60.043 69.602 60.043 57.285 70.176 56.81 62.036 41.362S60.874 21.927 64.029 18.605C67.187 15.282 62.701 9.801 60.376 0L58.081 2.987C58.673 6.567 57.133 10.382 55.55 10.382 51.066 10.382 50.069 13.953 50.069 13.953S48.574 10.382 44.753 10.382C43.135 10.382 41.418 6.391 42.044 2.74L39.938 0C37.613 9.801 33.127 15.282 36.283 18.604 39.438 21.927 45.355 25.398 38.275 41.361" fill="#ffffff" data-fill-palette-color="accent"></path></g></svg></g></svg></g></svg></g></svg></g></svg></g></svg></g><defs></defs></svg><rect width="48.00624805236148" height="95.481" fill="none" stroke="none" visibility="hidden"></rect></g></svg></g></svg>